<svg width="20" height="20" viewBox="0 0 20 20" fill="none" xmlns="http://www.w3.org/2000/svg">
<path d="M20 12.4067L17.5934 7.59331L15.1868 12.4067H16.8078C15.7874 15.5922 12.8032 17.9076 9.28236 17.9076C4.92238 17.9076 1.37479 14.3601 1.37479 10C1.37479 5.64004 4.92238 2.09245 9.28236 2.09245C12.6418 2.09245 15.5119 4.20193 16.6548 7.16368L17.4451 5.58286C15.8727 2.68737 12.8039 0.717293 9.28297 0.717293C4.16449 0.71717 0 4.88141 0 10C0 15.1183 4.16449 19.2829 9.28285 19.2829C13.5686 19.2829 17.1773 16.3611 18.2407 12.4068H20V12.4067Z" fill="white"/>
<path d="M4.35449 11.8521H5.22381L5.48765 10.9012H6.54853L6.8347 11.8521H7.73605L6.58719 8.14709H5.48765L4.35449 11.8521ZM5.82807 9.48837C5.88856 9.27374 5.94354 8.99334 5.99864 8.7738H6.00944C6.06454 8.99334 6.13068 9.26908 6.19683 9.48837L6.42778 10.2754H5.60865L5.82807 9.48837Z" fill="white"/>
<path d="M10.0304 8.80148C10.4367 8.80148 10.6895 8.87302 10.8929 8.96027L11.0691 8.28951C10.8876 8.20177 10.5191 8.10789 10.0411 8.10789C8.82614 8.10789 7.93044 8.81117 7.92393 10.043C7.91878 10.5871 8.10555 11.0704 8.4467 11.3902C8.78761 11.72 9.27663 11.8904 9.95329 11.8904C10.4417 11.8904 10.9319 11.7695 11.1896 11.6816V9.73007H9.8102V10.3843H10.3827V11.159C10.3162 11.1926 10.162 11.2141 9.96973 11.2141C9.28203 11.2141 8.8043 10.7628 8.8043 9.99869C8.8043 9.19687 9.33148 8.80148 10.0304 8.80148Z" fill="white"/>
<path d="M14.1336 8.83468V8.14771H11.8467V11.8521H14.2108V11.1658H12.6879V10.2862H14.0516V9.60386H12.6879V8.83468H14.1336Z" fill="white"/>
</svg>
