<svg width="18" height="21" viewBox="0 0 18 21" fill="none" xmlns="http://www.w3.org/2000/svg">
<rect x="4" y="5" width="3" height="7" fill="#2BE7E8"/>
<rect x="8" y="2" width="3" height="10" fill="#2BE7E8"/>
<rect x="12.15" y="0.15" width="2.7" height="11.7" stroke="#2BE7E8" stroke-width="0.3"/>
<path d="M1.96828 15.45H2.18828L3.68828 19H3.41828L2.92328 17.83H1.22828L0.733281 19H0.458281L1.96828 15.45ZM2.85328 17.62L2.07828 15.76L1.28828 17.62H2.85328ZM4.48629 19L3.40129 16.4H3.66629L4.62129 18.735L5.58129 16.4H5.83129L4.74629 19H4.48629ZM7.045 19.05C6.86167 19.05 6.69167 19.015 6.535 18.945C6.37833 18.8717 6.24167 18.7733 6.125 18.65C6.01167 18.5233 5.92167 18.3783 5.855 18.215C5.79167 18.0483 5.76 17.8733 5.76 17.69C5.76 17.4433 5.815 17.22 5.925 17.02C6.035 16.82 6.18667 16.66 6.38 16.54C6.57333 16.4167 6.79 16.355 7.03 16.355C7.27667 16.355 7.495 16.4167 7.685 16.54C7.875 16.6633 8.025 16.8267 8.135 17.03C8.24833 17.23 8.305 17.45 8.305 17.69C8.305 17.71 8.305 17.73 8.305 17.75C8.305 17.77 8.30333 17.7867 8.3 17.8H6.02C6.03333 17.9967 6.08833 18.175 6.185 18.335C6.28167 18.495 6.405 18.6217 6.555 18.715C6.70833 18.805 6.875 18.85 7.055 18.85C7.235 18.85 7.405 18.8033 7.565 18.71C7.725 18.6167 7.83667 18.4967 7.9 18.35L8.12 18.41C8.07 18.5333 7.99 18.6433 7.88 18.74C7.77333 18.8367 7.64667 18.9133 7.5 18.97C7.35667 19.0233 7.205 19.05 7.045 19.05ZM6.01 17.605H8.065C8.05167 17.4017 7.99833 17.2217 7.905 17.065C7.81167 16.9083 7.68833 16.785 7.535 16.695C7.385 16.605 7.21833 16.56 7.035 16.56C6.85167 16.56 6.685 16.605 6.535 16.695C6.385 16.785 6.26333 16.9083 6.17 17.065C6.07667 17.2217 6.02333 17.4017 6.01 17.605ZM9.78504 16.625C9.55171 16.6317 9.34671 16.7017 9.17004 16.835C8.99671 16.965 8.87504 17.145 8.80504 17.375V19H8.55504V16.4H8.79504V17.04C8.88504 16.8567 9.00504 16.7083 9.15504 16.595C9.30504 16.4783 9.46337 16.4117 9.63004 16.395C9.66337 16.3917 9.69337 16.39 9.72004 16.39C9.74671 16.39 9.76837 16.39 9.78504 16.39V16.625ZM9.72461 18.25C9.72461 18.0933 9.77128 17.9583 9.86461 17.845C9.95794 17.7283 10.0863 17.6383 10.2496 17.575C10.4129 17.5083 10.6013 17.475 10.8146 17.475C10.9479 17.475 11.0863 17.4867 11.2296 17.51C11.3729 17.5333 11.5013 17.565 11.6146 17.605V17.36C11.6146 17.12 11.5446 16.9283 11.4046 16.785C11.2679 16.6417 11.0779 16.57 10.8346 16.57C10.7046 16.57 10.5696 16.5967 10.4296 16.65C10.2896 16.7033 10.1463 16.78 9.99961 16.88L9.89461 16.7C10.0646 16.5867 10.2279 16.5017 10.3846 16.445C10.5446 16.385 10.7029 16.355 10.8596 16.355C11.1696 16.355 11.4146 16.4467 11.5946 16.63C11.7746 16.8133 11.8646 17.0633 11.8646 17.38V18.67C11.8646 18.71 11.8729 18.74 11.8896 18.76C11.9096 18.78 11.9379 18.7917 11.9746 18.795V19C11.9446 19.0033 11.9196 19.005 11.8996 19.005C11.8796 19.005 11.8629 19.005 11.8496 19.005C11.7863 18.995 11.7363 18.9683 11.6996 18.925C11.6663 18.8817 11.6479 18.8333 11.6446 18.78V18.575C11.5246 18.725 11.3696 18.8417 11.1796 18.925C10.9929 19.0083 10.7963 19.05 10.5896 19.05C10.4263 19.05 10.2779 19.015 10.1446 18.945C10.0146 18.875 9.91128 18.78 9.83461 18.66C9.76128 18.5367 9.72461 18.4 9.72461 18.25ZM11.5146 18.465C11.5479 18.4217 11.5729 18.38 11.5896 18.34C11.6063 18.3 11.6146 18.2633 11.6146 18.23V17.8C11.4946 17.7533 11.3696 17.7183 11.2396 17.695C11.1096 17.6717 10.9763 17.66 10.8396 17.66C10.5796 17.66 10.3679 17.7117 10.2046 17.815C10.0446 17.9183 9.96461 18.0583 9.96461 18.235C9.96461 18.345 9.99294 18.4467 10.0496 18.54C10.1063 18.6333 10.1846 18.7083 10.2846 18.765C10.3879 18.8217 10.5063 18.85 10.6396 18.85C10.8263 18.85 10.9979 18.815 11.1546 18.745C11.3146 18.6717 11.4346 18.5783 11.5146 18.465ZM13.3752 19.04C13.1985 19.04 13.0335 19.0033 12.8802 18.93C12.7302 18.8567 12.6002 18.7567 12.4902 18.63C12.3835 18.5 12.2985 18.3567 12.2352 18.2C12.1752 18.04 12.1452 17.875 12.1452 17.705C12.1452 17.5283 12.1735 17.3583 12.2302 17.195C12.2902 17.0317 12.3735 16.8883 12.4802 16.765C12.5902 16.6383 12.7185 16.5383 12.8652 16.465C13.0118 16.3917 13.1752 16.355 13.3552 16.355C13.5818 16.355 13.7785 16.415 13.9452 16.535C14.1152 16.6517 14.2585 16.795 14.3752 16.965V16.4H14.6052V19.05C14.6052 19.2833 14.5485 19.48 14.4352 19.64C14.3218 19.8 14.1718 19.9183 13.9852 19.995C13.7985 20.075 13.5968 20.115 13.3802 20.115C13.0768 20.115 12.8352 20.06 12.6552 19.95C12.4785 19.84 12.3352 19.695 12.2252 19.515L12.3952 19.4C12.4985 19.5733 12.6385 19.7017 12.8152 19.785C12.9918 19.8683 13.1802 19.91 13.3802 19.91C13.5568 19.91 13.7185 19.8767 13.8652 19.81C14.0152 19.7467 14.1335 19.65 14.2202 19.52C14.3102 19.3933 14.3552 19.2367 14.3552 19.05V18.48C14.2518 18.65 14.1102 18.7867 13.9302 18.89C13.7535 18.99 13.5685 19.04 13.3752 19.04ZM13.4352 18.825C13.5452 18.825 13.6518 18.805 13.7552 18.765C13.8585 18.725 13.9535 18.6717 14.0402 18.605C14.1268 18.535 14.1985 18.4583 14.2552 18.375C14.3118 18.2917 14.3452 18.2083 14.3552 18.125V17.27C14.3052 17.1367 14.2285 17.0183 14.1252 16.915C14.0252 16.8083 13.9118 16.7267 13.7852 16.67C13.6585 16.61 13.5285 16.58 13.3952 16.58C13.2385 16.58 13.0985 16.6133 12.9752 16.68C12.8518 16.7467 12.7468 16.835 12.6602 16.945C12.5768 17.0517 12.5118 17.1733 12.4652 17.31C12.4218 17.4433 12.4002 17.5767 12.4002 17.71C12.4002 17.86 12.4268 18.0017 12.4802 18.135C12.5335 18.2683 12.6068 18.3883 12.7002 18.495C12.7968 18.5983 12.9068 18.68 13.0302 18.74C13.1568 18.7967 13.2918 18.825 13.4352 18.825ZM16.1917 19.05C16.0083 19.05 15.8383 19.015 15.6817 18.945C15.525 18.8717 15.3883 18.7733 15.2717 18.65C15.1583 18.5233 15.0683 18.3783 15.0017 18.215C14.9383 18.0483 14.9067 17.8733 14.9067 17.69C14.9067 17.4433 14.9617 17.22 15.0717 17.02C15.1817 16.82 15.3333 16.66 15.5267 16.54C15.72 16.4167 15.9367 16.355 16.1767 16.355C16.4233 16.355 16.6417 16.4167 16.8317 16.54C17.0217 16.6633 17.1717 16.8267 17.2817 17.03C17.395 17.23 17.4517 17.45 17.4517 17.69C17.4517 17.71 17.4517 17.73 17.4517 17.75C17.4517 17.77 17.45 17.7867 17.4467 17.8H15.1667C15.18 17.9967 15.235 18.175 15.3317 18.335C15.4283 18.495 15.5517 18.6217 15.7017 18.715C15.855 18.805 16.0217 18.85 16.2017 18.85C16.3817 18.85 16.5517 18.8033 16.7117 18.71C16.8717 18.6167 16.9833 18.4967 17.0467 18.35L17.2667 18.41C17.2167 18.5333 17.1367 18.6433 17.0267 18.74C16.92 18.8367 16.7933 18.9133 16.6467 18.97C16.5033 19.0233 16.3517 19.05 16.1917 19.05ZM15.1567 17.605H17.2117C17.1983 17.4017 17.145 17.2217 17.0517 17.065C16.9583 16.9083 16.835 16.785 16.6817 16.695C16.5317 16.605 16.365 16.56 16.1817 16.56C15.9983 16.56 15.8317 16.605 15.6817 16.695C15.5317 16.785 15.41 16.9083 15.3167 17.065C15.2233 17.2217 15.17 17.4017 15.1567 17.605Z" fill="white"/>
</svg>
