<svg width="11" height="20" viewBox="0 0 11 20" fill="none" xmlns="http://www.w3.org/2000/svg">
<rect y="5" width="3" height="7" fill="#2BE7E8"/>
<rect x="4" y="2" width="3" height="10" fill="#2BE7E8"/>
<rect x="8" width="3" height="12" fill="#2BE7E8"/>
<path d="M3.6523 15.45V19H3.3973V17.3H1.1573V19H0.902305V15.45H1.1573V17.07H3.3973V15.45H3.6523ZM3.96465 18.25C3.96465 18.0933 4.01131 17.9583 4.10465 17.845C4.19798 17.7283 4.32631 17.6383 4.48965 17.575C4.65298 17.5083 4.84132 17.475 5.05465 17.475C5.18798 17.475 5.32632 17.4867 5.46965 17.51C5.61298 17.5333 5.74132 17.565 5.85465 17.605V17.36C5.85465 17.12 5.78465 16.9283 5.64465 16.785C5.50798 16.6417 5.31798 16.57 5.07465 16.57C4.94465 16.57 4.80965 16.5967 4.66965 16.65C4.52965 16.7033 4.38631 16.78 4.23965 16.88L4.13465 16.7C4.30465 16.5867 4.46798 16.5017 4.62465 16.445C4.78465 16.385 4.94298 16.355 5.09965 16.355C5.40965 16.355 5.65465 16.4467 5.83465 16.63C6.01465 16.8133 6.10465 17.0633 6.10465 17.38V18.67C6.10465 18.71 6.11298 18.74 6.12965 18.76C6.14965 18.78 6.17798 18.7917 6.21465 18.795V19C6.18465 19.0033 6.15965 19.005 6.13965 19.005C6.11965 19.005 6.10298 19.005 6.08965 19.005C6.02632 18.995 5.97632 18.9683 5.93965 18.925C5.90632 18.8817 5.88798 18.8333 5.88465 18.78V18.575C5.76465 18.725 5.60965 18.8417 5.41965 18.925C5.23298 19.0083 5.03632 19.05 4.82965 19.05C4.66631 19.05 4.51798 19.015 4.38465 18.945C4.25465 18.875 4.15131 18.78 4.07465 18.66C4.00131 18.5367 3.96465 18.4 3.96465 18.25ZM5.75465 18.465C5.78798 18.4217 5.81298 18.38 5.82965 18.34C5.84632 18.3 5.85465 18.2633 5.85465 18.23V17.8C5.73465 17.7533 5.60965 17.7183 5.47965 17.695C5.34965 17.6717 5.21632 17.66 5.07965 17.66C4.81965 17.66 4.60798 17.7117 4.44465 17.815C4.28465 17.9183 4.20465 18.0583 4.20465 18.235C4.20465 18.345 4.23298 18.4467 4.28965 18.54C4.34631 18.6333 4.42465 18.7083 4.52465 18.765C4.62798 18.8217 4.74631 18.85 4.87965 18.85C5.06632 18.85 5.23798 18.815 5.39465 18.745C5.55465 18.6717 5.67465 18.5783 5.75465 18.465ZM7.7952 16.625C7.56186 16.6317 7.35686 16.7017 7.1802 16.835C7.00686 16.965 6.8852 17.145 6.8152 17.375V19H6.5652V16.4H6.8052V17.04C6.8952 16.8567 7.0152 16.7083 7.1652 16.595C7.3152 16.4783 7.47353 16.4117 7.6402 16.395C7.67353 16.3917 7.70353 16.39 7.7302 16.39C7.75686 16.39 7.77853 16.39 7.7952 16.39V16.625ZM7.69652 17.705C7.69652 17.4617 7.74819 17.2383 7.85152 17.035C7.95486 16.8317 8.09652 16.6683 8.27652 16.545C8.45652 16.4183 8.66152 16.355 8.89152 16.355C9.11819 16.355 9.31819 16.415 9.49152 16.535C9.66819 16.655 9.80652 16.7983 9.90652 16.965V15.35H10.1565V18.67C10.1565 18.71 10.1649 18.74 10.1815 18.76C10.2015 18.78 10.2282 18.7917 10.2615 18.795V19C10.2082 19.0067 10.1682 19.0083 10.1415 19.005C10.0815 18.995 10.0315 18.9667 9.99152 18.92C9.95152 18.8733 9.93152 18.8233 9.93152 18.77V18.48C9.82486 18.6533 9.68152 18.7917 9.50152 18.895C9.32152 18.9983 9.13652 19.05 8.94652 19.05C8.76652 19.05 8.59986 19.0133 8.44652 18.94C8.29319 18.8633 8.15986 18.7617 8.04652 18.635C7.93652 18.5083 7.84986 18.365 7.78652 18.205C7.72652 18.045 7.69652 17.8783 7.69652 17.705ZM9.90652 18.125V17.27C9.85986 17.1433 9.78486 17.0283 9.68152 16.925C9.57819 16.8183 9.46152 16.735 9.33152 16.675C9.20152 16.6117 9.07319 16.58 8.94652 16.58C8.79652 16.58 8.65986 16.6117 8.53652 16.675C8.41652 16.7383 8.31152 16.8233 8.22152 16.93C8.13486 17.0367 8.06819 17.1583 8.02152 17.295C7.97486 17.4283 7.95152 17.5667 7.95152 17.71C7.95152 17.8567 7.97819 17.9983 8.03152 18.135C8.08486 18.2683 8.15819 18.3883 8.25152 18.495C8.34819 18.5983 8.45819 18.68 8.58152 18.74C8.70819 18.7967 8.84486 18.825 8.99152 18.825C9.08152 18.825 9.17652 18.8067 9.27652 18.77C9.37986 18.7333 9.47652 18.6833 9.56652 18.62C9.65986 18.5533 9.73652 18.4783 9.79652 18.395C9.85986 18.3083 9.89652 18.2183 9.90652 18.125Z" fill="white"/>
</svg>
