<svg width="20" height="20" viewBox="0 0 20 20" fill="none" xmlns="http://www.w3.org/2000/svg">
<path d="M19.4157 15.7426L17.9341 7.35648C17.6275 5.62074 16.1256 4.36094 14.363 4.36094H12.267C12.5839 3.91047 12.7707 3.36223 12.7707 2.77082C12.7707 1.24301 11.5277 0 9.99985 0C8.47204 0 7.22899 1.24301 7.22899 2.77086C7.22899 3.36227 7.41583 3.91051 7.73274 4.36098H5.63673C3.87415 4.36098 2.37223 5.62078 2.06555 7.35652L0.583992 15.7426C0.397 16.8012 0.685984 17.8805 1.37677 18.7041C2.06759 19.5277 3.08024 20 4.1552 20H15.8446C16.9195 20 17.9322 19.5277 18.623 18.7041C19.3138 17.8806 19.6027 16.8012 19.4157 15.7426ZM9.99985 1.18074C10.8766 1.18074 11.59 1.89406 11.59 2.77086C11.59 3.64766 10.8766 4.36098 9.99985 4.36098C9.12309 4.36098 8.40973 3.64766 8.40973 2.77086C8.40973 1.89406 9.12305 1.18074 9.99985 1.18074ZM17.7183 17.9453C17.2524 18.5007 16.5695 18.8193 15.8446 18.8193H4.1552C3.43028 18.8193 2.74731 18.5007 2.28145 17.9453C1.81559 17.3899 1.62067 16.6619 1.7468 15.948L3.22837 7.56195C3.4352 6.39137 4.44809 5.54168 5.63677 5.54168H14.3631C15.5518 5.54168 16.5647 6.39129 16.7715 7.56187L18.253 15.948C18.3791 16.6619 18.1841 17.3899 17.7183 17.9453Z" fill="white"/>
<path d="M8.05891 12.1804L9.53832 10.6517C9.76508 10.4174 9.75891 10.0437 9.52461 9.81693C9.29027 9.59009 8.91652 9.59634 8.68977 9.8306L7.03527 11.5402V10.2411C7.03527 9.91509 6.77094 9.65076 6.44488 9.65076C6.11883 9.65076 5.85449 9.91509 5.85449 10.2411V14.1197C5.85449 14.4458 6.11883 14.7101 6.44488 14.7101C6.77094 14.7101 7.03527 14.4458 7.03527 14.1197V12.8206L8.68977 14.5302C8.80555 14.6499 8.95973 14.7101 9.1141 14.7101C9.26191 14.7101 9.40996 14.6549 9.52461 14.544C9.75891 14.3172 9.765 13.9435 9.53832 13.7092L8.05891 12.1804Z" fill="white"/>
<path d="M13.5556 11.757H12.6694C12.3433 11.757 12.079 12.0213 12.079 12.3474C12.079 12.6734 12.3433 12.9378 12.6694 12.9378H12.9555C12.8993 13.2731 12.607 13.5295 12.2558 13.5295C11.8647 13.5295 11.5464 13.2112 11.5464 12.8201V11.5411C11.5464 11.1499 11.8647 10.8317 12.2558 10.8317C12.4759 10.8317 12.6799 10.9313 12.8157 11.1053C13.0163 11.3622 13.3873 11.408 13.6443 11.2074C13.9013 11.0067 13.947 10.6357 13.7465 10.3787C13.3854 9.91623 12.8421 9.65096 12.2559 9.65096C11.2137 9.65096 10.3657 10.4989 10.3657 11.5411V12.8201C10.3657 13.8623 11.2137 14.7103 12.2559 14.7103C13.2981 14.7103 14.146 13.8623 14.146 12.8201V12.3474C14.146 12.0213 13.8817 11.757 13.5556 11.757Z" fill="white"/>
</svg>
